<svg width="127" height="28" viewBox="0 0 127 28" fill="none" xmlns="http://www.w3.org/2000/svg">
<g clip-path="url(#clip0_41429_24294)">
<path d="M19.1549 27.7828L8.3125 15.1656L17.3628 5.88086L29.9983 20.5929L19.1549 27.7828Z" fill="url(#paint0_linear_41429_24294)"/>
<path d="M29.8615 20.4141H19.1875V27.8149H29.8615V20.4141Z" fill="#C77A6C"/>
<path d="M17.5282 0.203125L11.1152 7.48617V0.632282H0V27.7954H11.1152L28.5927 7.91532L17.5282 0.203125Z" fill="#FFE0D4"/>
<path d="M28.5957 0.203125H17.5312V7.91532H28.5957V0.203125Z" fill="#C77A6C"/>
<path d="M11.1152 0.203125V7.39781L0 20.0832V0.203125H11.1152Z" fill="url(#paint1_linear_41429_24294)"/>
<path d="M28.5062 7.9668H17.6296L-0.0703125 27.8146H11.0766L28.5062 7.9668Z" fill="#060619" fill-opacity="0.08"/>
</g>
<path d="M38.9297 27.2888V0.134744H44.8136V12.2731C46.2397 11.698 47.5636 10.9628 48.7832 10.0712C50.0028 9.17965 51.1009 8.18582 52.0754 7.08777C53.048 5.99165 53.8643 4.85306 54.5243 3.67204C55.1824 2.49294 55.6764 1.31384 56.0044 0.132812H62.7934C62.4094 1.47787 61.8324 2.80751 61.0663 4.12362C60.2982 5.43974 59.3719 6.69601 58.2893 7.88862C57.2048 9.08122 56.0681 10.131 54.8736 11.0361C53.681 11.9412 52.4671 12.6822 51.2321 13.2573V13.7919C52.5212 13.7919 53.6655 13.9424 54.6671 14.2453C55.6687 14.5483 56.566 14.9999 57.3611 15.6039C58.1562 16.2079 58.8489 16.9683 59.4395 17.8869C60.03 18.8054 60.5433 19.9093 60.9833 21.1984L63.2045 27.2868H56.4985L55.0588 22.3505C54.6478 21.0073 54.1403 19.9305 53.5362 19.12C52.9322 18.3114 52.1294 17.7209 51.1298 17.3504C50.1282 16.9798 48.8314 16.7946 47.2413 16.7946H44.8136V27.2868H38.9297V27.2888Z" fill="white"/>
<path d="M70.3704 27.8646C67.8462 27.8646 65.9396 27.0078 64.6524 25.2922C63.3633 23.5785 62.7188 20.9656 62.7188 17.4534V5.68555H68.6837V16.7124C68.6837 18.8255 68.9983 20.4021 69.6293 21.4442C70.2604 22.4863 71.2195 23.0073 72.5086 23.0073C73.3036 23.0073 73.9829 22.8163 74.5445 22.4322C75.1061 22.0482 75.5943 21.5059 76.0053 20.8074C76.4164 20.1088 76.7309 19.2983 76.9509 18.3797C77.169 17.4611 77.2925 16.4538 77.3214 15.3557V5.68748H83.2054V27.2876H78.433V20.5391H77.6514C77.2404 22.2393 76.7194 23.6326 76.0883 24.7152C75.4573 25.7997 74.6757 26.5948 73.7436 27.1023C72.8115 27.6099 71.6865 27.8626 70.3704 27.8626V27.8646Z" fill="white"/>
<path d="M91.6175 27.2881L84.375 5.72852H90.917L95.4423 22.6392H96.1004L100.709 5.72852H107.004L99.7631 27.2881H91.6175Z" fill="white"/>
<path d="M117.247 27.8635C115.491 27.8635 113.914 27.6165 112.515 27.1225C111.116 26.6284 109.937 25.9164 108.978 24.9823C108.017 24.0503 107.283 22.9039 106.776 21.5473C106.268 20.1887 106.016 18.6333 106.016 16.8772C106.016 15.1211 106.263 13.5657 106.757 12.1261C107.251 10.6865 107.949 9.44562 108.854 8.40353C109.759 7.36145 110.898 6.55288 112.27 5.97587C113.642 5.40079 115.149 5.11133 116.795 5.11133C118.442 5.11133 119.983 5.38536 121.259 5.93342C122.535 6.48341 123.598 7.28426 124.447 8.33986C125.296 9.39545 125.929 10.6923 126.34 12.2284C126.751 13.7645 126.902 15.5611 126.794 17.6183L109.842 17.7418V14.5325L123.378 14.3685L121.321 15.9741C121.485 14.548 121.375 13.3689 120.991 12.4349C120.607 11.5028 120.045 10.81 119.304 10.3565C118.563 9.90298 117.755 9.67719 116.876 9.67719C115.834 9.67719 114.929 9.95894 114.161 10.5205C113.393 11.084 112.783 11.8926 112.33 12.9482C111.876 14.0038 111.651 15.2736 111.651 16.7537C111.651 19.1139 112.158 20.8333 113.173 21.9178C114.188 23.0024 115.531 23.5427 117.205 23.5427C117.973 23.5427 118.623 23.4404 119.159 23.2339C119.694 23.0275 120.14 22.7612 120.497 22.4312C120.854 22.1012 121.134 21.7326 121.34 21.3196C121.547 20.9086 121.716 20.4975 121.855 20.0845L126.998 21.1961C126.751 22.2112 126.388 23.1297 125.908 23.9537C125.427 24.7758 124.791 25.4764 123.995 26.0514C123.2 26.6265 122.247 27.0742 121.136 27.3888C120.024 27.7033 118.729 27.8616 117.247 27.8616V27.8635Z" fill="white"/>
<defs>
<linearGradient id="paint0_linear_41429_24294" x1="29.9984" y1="27.9668" x2="11.7088" y2="9.04409" gradientUnits="userSpaceOnUse">
<stop stop-color="#FFDFD9"/>
<stop offset="1" stop-color="#9E5E57"/>
</linearGradient>
<linearGradient id="paint1_linear_41429_24294" x1="5.55758" y1="0.203125" x2="5.55758" y2="20.0832" gradientUnits="userSpaceOnUse">
<stop stop-color="#E9CBC3"/>
<stop offset="1" stop-color="#B27E71"/>
</linearGradient>
<clipPath id="clip0_41429_24294">
<rect width="29.8601" height="27.5923" fill="white" transform="translate(0 0.203125)"/>
</clipPath>
</defs>
</svg>
