<svg width="227" height="29" viewBox="0 0 227 29" fill="none" xmlns="http://www.w3.org/2000/svg">
<g clip-path="url(#clip0_41429_24258)">
<path d="M19.3737 27.9742L8.53125 15.357L17.5815 6.07227L30.217 20.7843L19.3737 27.9742Z" fill="url(#paint0_linear_41429_24258)"/>
<path d="M30.0802 20.6055H19.4062V28.0063H30.0802V20.6055Z" fill="#C77A6C"/>
<path d="M17.747 0.394531L11.3339 7.67757V0.823688H0.21875V27.9868H11.3339L28.8114 8.10673L17.747 0.394531Z" fill="#FFE0D4"/>
<path d="M28.8145 0.394531H17.75V8.10673H28.8145V0.394531Z" fill="#C77A6C"/>
<path d="M11.3339 0.394531V7.58922L0.21875 20.2746V0.394531H11.3339Z" fill="url(#paint1_linear_41429_24258)"/>
<path d="M28.725 8.1582H17.8483L0.148438 28.006H11.2953L28.725 8.1582Z" fill="#060619" fill-opacity="0.08"/>
</g>
<path d="M39.1484 27.4821V0.328104H45.0324V12.4665C46.4585 11.8914 47.7823 11.1561 49.0019 10.2646C50.2216 9.37301 51.3196 8.37918 52.2941 7.28113C53.2668 6.18501 54.0831 5.04642 54.743 3.86539C55.4011 2.68629 55.8951 1.5072 56.2232 0.326172H63.0122C62.6282 1.67123 62.0511 3.00087 61.285 4.31698C60.517 5.6331 59.5907 6.88937 58.5081 8.08197C57.4235 9.27458 56.2869 10.3244 55.0923 11.2295C53.8997 12.1345 52.6859 12.8756 51.4508 13.4507V13.9852C52.7399 13.9852 53.8843 14.1357 54.8859 14.4387C55.8874 14.7417 56.7848 15.1933 57.5798 15.7973C58.3749 16.4013 59.0677 17.1616 59.6582 18.0802C60.2487 18.9988 60.7621 20.1026 61.202 21.3917L63.4232 27.4802H56.7172L55.2776 22.5438C54.8666 21.2007 54.359 20.1239 53.755 19.3133C53.151 18.5048 52.3482 17.9142 51.3485 17.5437C50.347 17.1732 49.0502 16.9879 47.46 16.9879H45.0324V27.4802H39.1484V27.4821Z" fill="#2B2A2C"/>
<path d="M70.5891 28.0579C68.0649 28.0579 66.1583 27.2011 64.8711 25.4855C63.582 23.7719 62.9375 21.159 62.9375 17.6467V5.87891H68.9025V16.9057C68.9025 19.0188 69.217 20.5955 69.8481 21.6376C70.4791 22.6796 71.4382 23.2007 72.7273 23.2007C73.5224 23.2007 74.2017 23.0096 74.7632 22.6256C75.3248 22.2416 75.813 21.6993 76.2241 21.0007C76.6351 20.3021 76.9497 19.4916 77.1697 18.5731C77.3877 17.6545 77.5113 16.6471 77.5402 15.5491V5.88084H83.4241V27.4809H78.6518V20.7325H77.8702C77.4591 22.4326 76.9381 23.8259 76.3071 24.9085C75.676 25.9931 74.8945 26.7881 73.9624 27.2957C73.0303 27.8032 71.9052 28.056 70.5891 28.056V28.0579Z" fill="#2B2A2C"/>
<path d="M91.8362 27.4815L84.5938 5.92188H91.1357L95.6611 22.8326H96.3191L100.927 5.92188H107.222L99.9819 27.4815H91.8362Z" fill="#2B2A2C"/>
<path d="M117.466 28.0569C115.71 28.0569 114.133 27.8099 112.734 27.3158C111.335 26.8218 110.156 26.1097 109.197 25.1757C108.236 24.2436 107.502 23.0973 106.995 21.7407C106.487 20.3821 106.234 18.8267 106.234 17.0706C106.234 15.3145 106.481 13.7591 106.975 12.3195C107.469 10.8798 108.168 9.63898 109.073 8.59689C109.978 7.55481 111.117 6.74623 112.489 6.16923C113.861 5.59415 115.368 5.30469 117.014 5.30469C118.66 5.30469 120.202 5.57872 121.478 6.12678C122.753 6.67677 123.817 7.47762 124.666 8.53322C125.515 9.58881 126.148 10.8856 126.559 12.4217C126.97 13.9579 127.12 15.7545 127.012 17.8116L110.061 17.9351V14.7259L123.597 14.5619L121.54 16.1674C121.704 14.7413 121.594 13.5622 121.21 12.6282C120.825 11.6961 120.264 11.0033 119.523 10.5498C118.782 10.0963 117.973 9.87055 117.095 9.87055C116.053 9.87055 115.148 10.1523 114.38 10.7139C113.612 11.2774 113.002 12.086 112.549 13.1415C112.095 14.1971 111.869 15.4669 111.869 16.9471C111.869 19.3072 112.377 21.0267 113.392 22.1112C114.407 23.1957 115.75 23.7361 117.423 23.7361C118.191 23.7361 118.842 23.6338 119.378 23.4273C119.913 23.2208 120.358 22.9545 120.715 22.6245C121.073 22.2945 121.352 21.9259 121.559 21.513C121.765 21.1019 121.935 20.6909 122.074 20.2779L127.217 21.3895C126.97 22.4045 126.607 23.3231 126.127 24.1471C125.646 24.9692 125.009 25.6697 124.214 26.2448C123.419 26.8199 122.466 27.2676 121.354 27.5821C120.243 27.8967 118.948 28.0549 117.466 28.0549V28.0569Z" fill="#2B2A2C"/>
<defs>
<linearGradient id="paint0_linear_41429_24258" x1="30.2172" y1="28.1583" x2="11.9275" y2="9.2355" gradientUnits="userSpaceOnUse">
<stop stop-color="#FFDFD9"/>
<stop offset="1" stop-color="#9E5E57"/>
</linearGradient>
<linearGradient id="paint1_linear_41429_24258" x1="5.77633" y1="0.394531" x2="5.77633" y2="20.2746" gradientUnits="userSpaceOnUse">
<stop stop-color="#E9CBC3"/>
<stop offset="1" stop-color="#B27E71"/>
</linearGradient>
<clipPath id="clip0_41429_24258">
<rect width="29.8601" height="27.5923" fill="white" transform="translate(0.21875 0.394531)"/>
</clipPath>
</defs>
</svg>
